<?xml version="1.0" standalone="no"?>
<!DOCTYPE svg PUBLIC "-//W3C//DTD SVG 20010904//EN"
 "http://www.w3.org/TR/2001/REC-SVG-20010904/DTD/svg10.dtd">
<svg version="1.0" xmlns="http://www.w3.org/2000/svg"
 width="512.000000pt" height="512.000000pt" viewBox="0 0 512.000000 512.000000"
 preserveAspectRatio="xMidYMid meet">

<g transform="translate(0.000000,512.000000) scale(0.100000,-0.100000)"
fill="#000000" stroke="none">
<path d="M1060 5108 c-17 -9 -47 -56 -94 -149 l-70 -137 -129 -63 c-71 -35
-135 -73 -143 -84 -20 -28 -17 -88 5 -116 10 -13 74 -51 141 -84 l122 -60 64
-126 c67 -135 97 -169 149 -169 52 0 82 34 149 169 l64 126 122 60 c67 33 131
71 141 84 23 28 25 83 4 114 -8 12 -72 51 -143 86 l-129 64 -64 129 c-35 71
-71 136 -80 144 -23 21 -79 27 -109 12z m162 -463 l56 -31 -56 -29 c-46 -24
-62 -40 -84 -80 -15 -27 -30 -50 -33 -50 -3 0 -18 23 -33 50 -22 40 -39 56
-86 81 l-60 32 61 30 c51 26 64 39 89 86 l28 54 31 -56 c25 -45 42 -62 87 -87z"/>
<path d="M2515 5109 c-52 -30 -55 -40 -55 -251 l0 -198 -75 0 c-133 0 -231
-55 -290 -161 -29 -52 -30 -59 -33 -206 l-4 -153 -41 -11 c-627 -164 -1165
-642 -1406 -1246 -244 -613 -189 -1293 152 -1863 159 -267 427 -537 693 -701
255 -156 556 -262 854 -299 120 -14 407 -12 525 5 636 90 1175 441 1509 983
205 332 307 694 307 1087 -1 564 -198 1058 -583 1460 -249 261 -584 463 -934
564 l-71 21 -5 143 c-4 126 -7 148 -30 198 -52 114 -141 171 -280 177 l-87 4
-3 199 c-3 198 -3 199 -29 224 -29 29 -85 41 -114 24z m307 -678 c33 -29 33
-29 36 -140 l4 -111 -73 7 c-96 10 -375 10 -461 0 l-68 -8 0 108 c1 172 1 172
302 173 l228 0 32 -29z m-228 -452 c91 -72 186 -315 256 -653 11 -54 20 -104
20 -112 0 -12 -53 -14 -316 -14 -296 0 -315 1 -310 18 2 9 12 55 21 102 58
298 152 553 235 641 42 45 57 47 94 18z m-354 -54 c0 -3 -8 -22 -19 -43 -26
-52 -86 -238 -117 -360 -19 -81 -64 -302 -64 -319 0 -2 -48 -3 -107 -3 -87 0
-112 -4 -129 -18 -51 -41 -57 -97 -15 -144 29 -32 31 -33 126 -36 l97 -4 -6
-41 c-14 -94 -35 -384 -42 -564 l-7 -193 -299 0 -298 0 0 25 c0 50 31 317 45
393 22 114 20 139 -14 173 -23 23 -38 29 -71 29 -54 0 -84 -30 -99 -100 -24
-111 -61 -413 -61 -497 l0 -23 -250 0 -251 0 6 53 c31 271 77 445 177 658 l40
87 108 4 c98 3 111 6 134 27 34 32 41 72 21 115 -17 36 -48 53 -103 58 l-32 3
68 85 c165 204 392 389 613 500 l61 31 -58 -68 c-33 -38 -86 -108 -119 -157
-48 -70 -60 -95 -60 -127 0 -48 35 -87 86 -95 46 -8 74 15 149 126 112 163
259 304 408 391 65 38 82 45 82 34z m693 -21 c203 -102 406 -325 548 -602 l50
-97 -218 -3 c-120 -1 -223 0 -229 2 -6 2 -15 26 -18 53 -25 169 -112 489 -166
611 -16 34 -27 62 -24 62 3 0 28 -12 57 -26z m562 -152 c142 -81 279 -186 393
-299 87 -87 212 -232 212 -247 0 -4 -79 -6 -174 -6 l-175 0 -69 143 c-67 137
-192 336 -268 425 -20 23 -33 42 -28 42 5 0 54 -26 109 -58z m-591 -774 c16
-77 43 -439 48 -648 l3 -125 -399 -3 -399 -2 7 192 c6 174 26 436 42 561 l7
47 343 0 344 0 4 -22z m735 -75 c57 -188 96 -406 108 -599 l6 -104 -295 0
-295 0 -7 38 c-3 20 -6 84 -6 142 0 92 -15 315 -36 548 l-7 72 251 0 251 0 30
-97z m636 5 c89 -191 155 -430 171 -626 l7 -82 -249 2 -249 3 -7 95 c-14 202
-47 402 -95 580 -14 52 -28 100 -30 107 -4 10 38 13 202 13 l206 0 44 -92z
m-3111 -985 c19 -239 53 -445 101 -618 14 -49 25 -93 25 -98 0 -4 -91 -6 -202
-5 l-203 3 -37 75 c-82 166 -158 429 -173 595 -3 39 -9 82 -11 98 l-6 27 250
0 250 0 6 -77z m800 -110 c6 -171 27 -446 42 -566 l7 -47 -255 0 -255 0 -31
108 c-55 187 -92 400 -107 605 l-6 87 299 0 299 0 7 -187z m991 120 c-2 -38
-7 -135 -10 -218 -6 -147 -30 -448 -40 -492 l-5 -23 -344 0 -343 0 -7 59 c-19
168 -36 386 -42 554 l-7 187 402 0 401 0 -5 -67z m791 -33 c-12 -181 -61 -434
-119 -620 l-23 -75 -247 -3 -247 -2 0 27 c0 16 7 96 15 178 8 83 17 227 20
320 3 94 8 194 11 223 l5 52 296 0 296 0 -7 -100z m700 28 c-20 -222 -95 -487
-192 -680 l-24 -48 -205 0 c-119 0 -205 4 -205 9 0 5 18 80 40 165 43 173 76
368 86 524 l7 102 250 0 250 0 -7 -72z m-3008 -1078 c67 -137 184 -322 251
-395 60 -66 58 -70 -14 -31 -194 106 -407 272 -525 407 -77 89 -130 155 -130
163 0 3 78 6 173 6 l172 -1 73 -149z m602 145 c0 -3 14 -72 30 -155 36 -176
88 -360 135 -477 18 -46 31 -83 29 -83 -3 0 -28 12 -57 26 -202 102 -412 334
-546 601 -22 46 -41 85 -41 88 0 3 101 5 225 5 124 0 225 -2 225 -5z m830 -5
c0 -5 -14 -76 -31 -157 -72 -346 -197 -623 -282 -623 -95 0 -235 338 -305 738
l-9 52 313 0 c193 0 314 -4 314 -10z m650 3 c0 -17 -118 -226 -173 -307 -111
-163 -283 -323 -424 -395 -23 -11 -44 -21 -47 -21 -3 0 10 35 28 78 55 128
126 390 157 575 l13 77 223 0 c123 0 223 -3 223 -7z m569 -10 c-152 -198 -301
-338 -494 -466 -80 -53 -195 -117 -210 -117 -3 0 15 25 40 55 102 126 217 319
288 483 l26 62 182 0 c171 0 181 -1 168 -17z"/>
<path d="M1391 3169 c-41 -41 -42 -86 -2 -131 69 -77 192 -7 162 92 -21 71
-107 92 -160 39z"/>
<path d="M4362 5095 c-26 -21 -41 -58 -96 -223 -37 -108 -70 -202 -74 -208 -4
-6 -98 -41 -209 -78 -111 -37 -213 -76 -227 -87 -33 -26 -43 -77 -22 -117 18
-36 4 -29 255 -116 l204 -71 72 -214 c46 -138 79 -219 91 -228 40 -29 88 -29
128 0 12 9 45 90 91 228 l72 214 204 71 c248 85 236 80 254 115 22 42 18 75
-12 108 -23 24 -68 42 -235 97 l-207 68 -55 161 c-87 258 -94 274 -126 290
-42 22 -74 18 -108 -10z m148 -595 c12 -9 61 -29 108 -45 l87 -28 -92 -31
c-50 -17 -101 -40 -112 -50 -11 -10 -33 -56 -48 -102 -15 -46 -30 -84 -33 -84
-4 0 -17 35 -31 77 -33 106 -52 126 -154 160 -47 15 -82 30 -77 34 4 3 44 19
88 33 45 15 89 35 98 45 9 10 27 51 41 92 14 41 28 81 31 89 3 9 20 -24 39
-79 20 -57 42 -101 55 -111z"/>
<path d="M251 4086 c-36 -20 -50 -55 -51 -123 l0 -63 -60 0 c-34 0 -74 -7 -89
-15 -57 -29 -64 -110 -15 -156 20 -19 39 -24 94 -27 l70 -4 0 -64 c0 -56 3
-68 29 -96 39 -44 98 -46 138 -5 23 23 28 37 31 96 l4 69 69 4 c54 3 73 8 93
27 34 32 41 72 21 114 -20 43 -51 57 -125 57 l-60 0 0 56 c0 31 -7 71 -15 89
-25 51 -83 69 -134 41z"/>
</g>
</svg>
