<?xml version="1.0" standalone="no"?>
<!DOCTYPE svg PUBLIC "-//W3C//DTD SVG 20010904//EN"
 "http://www.w3.org/TR/2001/REC-SVG-20010904/DTD/svg10.dtd">
<svg version="1.0" xmlns="http://www.w3.org/2000/svg"
 width="802.000000pt" height="693.000000pt" viewBox="0 0 802.000000 693.000000"
 preserveAspectRatio="xMidYMid meet">

<g transform="translate(0.000000,693.000000) scale(0.100000,-0.100000)"
fill="#000000" stroke="none">
<path d="M3694 6909 c-716 -55 -1376 -332 -1911 -802 -190 -167 -303 -303
-303 -365 0 -31 27 -92 52 -119 12 -13 39 -28 59 -33 62 -17 99 6 223 137 327
344 698 587 1121 732 363 126 620 165 1060 165 284 -1 383 -8 590 -45 468 -83
922 -290 1323 -602 56 -44 102 -84 102 -88 0 -5 -37 -9 -82 -9 -139 0 -203
-48 -203 -150 0 -65 26 -109 80 -134 32 -15 70 -17 325 -14 273 3 290 4 316
24 15 11 37 33 48 48 20 27 21 40 21 376 0 338 -1 349 -21 377 -11 15 -36 39
-55 51 -62 43 -151 18 -192 -53 -7 -11 -14 -81 -17 -159 l-5 -139 -105 80
c-506 384 -1033 612 -1604 693 -272 39 -564 49 -822 29z"/>
<path d="M2923 5556 c-66 -16 -120 -44 -286 -148 -201 -124 -240 -148 -397
-243 -670 -407 -711 -436 -768 -543 -26 -49 -136 -347 -220 -597 -24 -70 -101
-142 -258 -242 -558 -352 -847 -540 -890 -578 -108 -93 -122 -201 -50 -390
126 -333 366 -765 505 -908 147 -154 371 -252 651 -287 46 -5 249 -10 450 -10
334 0 368 -2 406 -19 22 -10 49 -30 60 -44 10 -15 30 -42 44 -61 28 -38 77
-66 116 -66 15 0 44 10 66 22 147 83 91 304 -102 403 -109 55 -123 57 -590 65
-398 6 -443 9 -535 29 -205 46 -353 144 -453 299 -57 89 -212 372 -212 387 0
6 46 26 102 44 57 18 117 44 134 57 86 64 85 204 -3 261 -22 15 -55 19 -191
23 l-165 5 264 171 c231 150 450 290 669 428 36 22 89 63 118 90 85 80 112
136 242 506 39 113 83 224 96 247 29 50 79 94 170 149 87 53 691 424 804 494
193 121 219 134 281 138 48 4 65 0 104 -21 57 -32 281 -194 422 -304 108 -85
144 -101 206 -89 68 13 124 106 108 178 -12 50 -26 71 -79 119 -45 40 -282
209 -476 339 -139 93 -242 122 -343 96z"/>
<path d="M4950 5559 c-73 -14 -153 -60 -361 -207 -297 -208 -337 -240 -364
-286 -60 -103 -8 -231 97 -243 56 -7 98 12 168 73 91 79 412 316 450 332 48
20 126 11 188 -21 28 -14 101 -59 164 -98 62 -40 248 -154 413 -254 413 -250
510 -312 546 -347 39 -40 78 -119 119 -243 53 -161 159 -436 184 -480 42 -71
120 -137 278 -236 340 -214 501 -317 663 -423 l169 -111 -159 -5 c-101 -3
-168 -10 -182 -17 -93 -54 -90 -221 4 -276 18 -10 72 -32 120 -48 48 -17 92
-34 97 -39 10 -9 -131 -285 -201 -394 -115 -178 -281 -274 -538 -312 -67 -9
-231 -16 -495 -20 -347 -5 -403 -8 -460 -24 -198 -58 -314 -227 -251 -366 26
-56 74 -89 131 -89 57 0 88 20 140 90 71 95 37 89 515 96 378 5 431 8 526 27
314 65 503 180 650 399 167 246 386 681 429 849 50 196 15 264 -214 406 -72
45 -207 131 -301 191 -93 61 -264 171 -380 246 -263 170 -302 207 -340 321
-76 234 -200 559 -229 605 -46 71 -86 101 -346 260 -124 76 -313 192 -420 258
-351 216 -564 343 -615 364 -62 27 -135 35 -195 22z"/>
<path d="M5032 4930 c-18 -4 -45 -18 -59 -31 -52 -50 -53 -55 -54 -396 -1
-175 -4 -413 -8 -529 l-6 -211 -30 -49 c-38 -61 -76 -87 -151 -103 -130 -29
-180 -81 -172 -178 4 -50 9 -60 46 -95 39 -36 45 -38 105 -38 192 0 357 108
445 290 69 144 73 182 70 753 -3 486 -3 496 -24 524 -39 52 -103 76 -162 63z"/>
<path d="M2885 4920 c-31 -12 -65 -54 -80 -97 -20 -57 -10 -977 11 -1081 53
-255 258 -442 483 -442 76 0 119 21 151 72 40 65 16 164 -49 201 -17 11 -65
27 -107 38 -98 24 -125 45 -160 121 l-29 63 -5 520 -5 520 -23 33 c-13 18 -36
39 -52 47 -31 16 -102 19 -135 5z"/>
<path d="M1768 3880 c-54 -29 -81 -73 -86 -140 -13 -178 190 -268 306 -136 58
66 64 145 16 218 -47 73 -156 100 -236 58z"/>
<path d="M6063 3875 c-77 -46 -104 -146 -62 -233 65 -134 259 -133 320 2 42
93 8 195 -83 242 -44 23 -126 18 -175 -11z"/>
<path d="M3092 2979 c-61 -40 -77 -97 -102 -358 -14 -145 -14 -543 0 -646 17
-124 47 -222 98 -319 59 -112 160 -224 212 -235 111 -23 202 60 187 171 -3 26
-23 63 -58 111 -66 90 -114 193 -129 277 -19 100 -16 564 5 739 16 134 16 145
0 187 -33 86 -136 122 -213 73z"/>
<path d="M4775 2981 c-60 -37 -70 -56 -70 -140 0 -42 6 -137 14 -212 18 -192
11 -635 -13 -703 -19 -59 -78 -167 -116 -216 -42 -54 -60 -95 -60 -139 0 -77
41 -132 110 -151 82 -22 151 25 249 169 90 132 124 236 146 449 18 163 19 296
5 504 -21 295 -47 396 -116 438 -40 25 -109 26 -149 1z"/>
<path d="M1596 1190 c-16 -5 -40 -19 -54 -32 -49 -46 -52 -66 -52 -381 0 -284
1 -294 23 -337 31 -61 67 -85 127 -84 56 1 92 21 120 67 17 27 20 51 20 161
l0 128 28 -18 c85 -56 327 -197 456 -266 411 -218 825 -343 1326 -398 170 -19
232 -21 480 -17 302 5 445 20 680 70 507 108 1023 355 1440 688 151 121 186
155 211 207 49 100 -16 212 -121 212 -43 0 -62 -12 -165 -103 -296 -261 -643
-470 -991 -596 -340 -124 -576 -170 -984 -193 -178 -10 -231 -9 -405 6 -336
29 -548 71 -828 162 -255 84 -447 172 -697 322 -188 112 -183 107 -129 116
119 19 179 133 120 229 -38 61 -68 67 -339 66 -130 0 -250 -5 -266 -9z"/>
</g>
</svg>
